<?xml version="1.0" encoding="utf-8"?>
<!-- Generator: Adobe Illustrator 16.0.0, SVG Export Plug-In . SVG Version: 6.00 Build 0)  -->
<!DOCTYPE svg PUBLIC "-//W3C//DTD SVG 1.1//EN" "http://www.w3.org/Graphics/SVG/1.1/DTD/svg11.dtd">
<svg version="1.1" id="Layer_1" xmlns="http://www.w3.org/2000/svg" xmlns:xlink="http://www.w3.org/1999/xlink" x="0px" y="0px"
	 width="100px" height="100px" viewBox="0 0 100 100" enable-background="new 0 0 100 100" xml:space="preserve">
<g>
	<path fill-rule="evenodd" clip-rule="evenodd" fill="#262626" d="M38.238,47.453c-0.698,0.644-1.263,1.13-1.789,1.655
		c-6.201,6.193-12.399,12.389-18.592,18.588c-3.165,3.17-3.172,7.18-0.029,10.338c1.427,1.432,2.852,2.867,4.291,4.289
		c2.975,2.936,7.059,2.932,10.033-0.035c6.506-6.488,13-12.992,19.492-19.494c0.274-0.275,0.494-0.604,0.882-1.084
		c1,2.512,1.371,4.848,1.223,7.262c-0.279,4.512-2.072,8.324-5.302,11.494c-3.039,2.98-6.02,6.021-9.038,9.025
		c-7.023,6.99-17.549,6.996-24.557,0.02c-1.559-1.553-3.125-3.098-4.664-4.67c-6.536-6.674-6.571-17.195-0.045-23.869
		c3.299-3.373,6.582-6.77,10.027-9.99c5.02-4.689,10.905-5.859,17.443-3.779C37.739,47.242,37.859,47.3,38.238,47.453z"/>
	<path fill-rule="evenodd" clip-rule="evenodd" fill="#262626" d="M61.829,52.66c0.405-0.424,0.662-0.705,0.933-0.975
		c6.421-6.425,12.846-12.847,19.268-19.271c3.317-3.318,3.329-7.262,0.035-10.563c-1.378-1.381-2.754-2.765-4.141-4.139
		c-3.015-2.989-7.087-2.988-10.108,0.027c-6.507,6.491-12.999,12.995-19.499,19.492c-0.271,0.271-0.552,0.53-0.92,0.881
		c-1.481-3.92-1.545-7.754-0.284-11.61c0.793-2.426,2.083-4.575,3.887-6.391c3.324-3.35,6.632-6.716,10.012-10.009
		c6.682-6.509,17.231-6.439,23.871,0.114c1.642,1.621,3.274,3.25,4.893,4.893c6.587,6.685,6.622,17.245,0.05,23.95
		c-3.229,3.294-6.457,6.593-9.793,9.775C74.85,53.779,68.779,54.873,61.829,52.66z"/>
	<path fill-rule="evenodd" clip-rule="evenodd" fill="#262626" d="M70.076,36.758c0.031,1.833-0.607,3.406-1.895,4.694
		c-8.847,8.858-17.688,17.722-26.561,26.552c-2.697,2.684-6.861,2.598-9.545-0.088c-2.686-2.688-2.765-6.846-0.078-9.545
		c8.807-8.848,17.638-17.67,26.48-26.482c2.104-2.096,4.629-2.503,7.353-1.447C68.408,31.442,70.06,33.986,70.076,36.758z"/>
</g>
</svg>
