<?xml version="1.0" encoding="utf-8"?>
<!-- Generator: Adobe Illustrator 16.0.0, SVG Export Plug-In . SVG Version: 6.00 Build 0)  -->
<!DOCTYPE svg PUBLIC "-//W3C//DTD SVG 1.1//EN" "http://www.w3.org/Graphics/SVG/1.1/DTD/svg11.dtd">
<svg version="1.1" id="Layer_1" xmlns="http://www.w3.org/2000/svg" xmlns:xlink="http://www.w3.org/1999/xlink" x="0px" y="0px"
	 width="100px" height="100px" viewBox="0 0 100 100" enable-background="new 0 0 100 100" xml:space="preserve">
<path fill-rule="evenodd" clip-rule="evenodd" fill="#262626" d="M62.301,95.763c5.811-2.822,10.277-6.97,13.117-12.768
	c8.422-17.194-3.094-37.401-22.148-38.942c-1.704-0.137-2.043,0.375-1.998,1.938c0.103,3.617,0.033,7.239,0.033,11.404
	C35.841,48.492,20.758,39.809,5.269,30.892C20.704,21.966,35.733,13.275,51.305,4.27c0,3.871,0.096,7.273-0.039,10.667
	c-0.071,1.796,0.236,2.441,2.309,2.533c18.491,0.831,34.685,15.325,37.389,33.283c2.98,19.776-7.5,38.149-25.534,44.771
	C64.463,95.877,63.521,96.387,62.301,95.763z"/>
</svg>
